# xmcd
#
# Track frame offsets:
#	150
#	32300
#	68350
#	94675
#	116275
#	138732
#	163387
#	180587
#	212675
#	234737
#	255675
#	274250
#
# Disc length: 3999 seconds
#
# Revision: 1
# Processed by: cddbd v1.5.2PL0 Copyright (c) Steve Scherf et al.
# Submitted via: audiograbber 1.83.01
#
DISCID=a40f9d0c
DTITLE=Buddhas Gambler - Live
DYEAR=2002
DGENRE=Blues
TTITLE0=Opus 55
TTITLE1=Beale Street Blues
TTITLE2=There'll be some Changes made
TTITLE3=Jazz me Blues
TTITLE4=Mood Indigo
TTITLE5=The Sheik of Araby
TTITLE6=F.S.R.
TTITLE7=St. Louis Blues
TTITLE8=Sunday
TTITLE9=Blues for the Count
TTITLE10=Squeeze me
TTITLE11=Careless Love Blues
EXTD=
EXTT0=
EXTT1=
EXTT2=
EXTT3=
EXTT4=
EXTT5=
EXTT6=
EXTT7=
EXTT8=
EXTT9=
EXTT10=
EXTT11=
PLAYORDER=
